<svg width="1600" height="1200" viewBox="0 0 1600 1200" fill="none" xmlns="http://www.w3.org/2000/svg">
  <rect width="1600" height="1200" fill="#171721"/>
  <rect width="1600" height="1200" fill="url(#sky)"/>
  <ellipse cx="1180" cy="208" rx="356" ry="166" fill="#ededf3" fill-opacity="0.06"/>
  <path d="M0 430C104 368 210 338 320 340C468 343 514 421 652 423C783 425 846 362 975 344C1134 322 1267 370 1406 330C1486 307 1543 271 1600 238V652H0V430Z" fill="#1e1e2a"/>
  <path d="M0 531C80 502 145 481 248 475C391 468 490 522 630 520C776 518 890 434 1045 438C1168 441 1281 507 1405 503C1479 500 1540 474 1600 452V738H0V531Z" fill="#272735" fill-opacity="0.78"/>
  <path d="M0 629C116 584 203 571 317 584C466 601 570 666 708 660C850 653 948 581 1098 577C1280 572 1417 657 1600 639V850H0V629Z" fill="#1e1e2a"/>
  <path d="M0 764C122 736 245 736 361 765C473 793 579 852 697 854C837 857 915 781 1061 778C1240 775 1397 862 1600 837V1035H0V764Z" fill="#171721"/>
  <g opacity="0.33">
    <ellipse cx="326" cy="632" rx="246" ry="63" fill="#ededf3" fill-opacity="0.06"/>
    <ellipse cx="1042" cy="670" rx="323" ry="79" fill="#ededf3" fill-opacity="0.06"/>
    <ellipse cx="827" cy="764" rx="474" ry="105" fill="#ededf3" fill-opacity="0.04"/>
  </g>
  <g opacity="0.55">
    <circle cx="214" cy="691" r="2" fill="#c3c3cc"/>
    <circle cx="244" cy="679" r="2" fill="#c3c3cc"/>
    <circle cx="1274" cy="716" r="2" fill="#c3c3cc"/>
    <circle cx="1298" cy="705" r="2" fill="#c3c3cc"/>
    <circle cx="1324" cy="721" r="2" fill="#c3c3cc"/>
  </g>
  <path d="M0 915H1600V1200H0V915Z" fill="url(#vignette)"/>
  <path d="M308 921C352 891 429 885 496 884H1001C1124 884 1185 904 1232 941L1307 1001H221L308 921Z" fill="#0f1018"/>
  <path d="M516 835H1034C1051 835 1064 848 1064 865V924H486V865C486 848 499 835 516 835Z" fill="#11131B"/>
  <path d="M549 861H1001V915H549V861Z" fill="#272735"/>
  <rect x="756" y="850" width="38" height="6" rx="3" fill="#5266eb"/>
  <path d="M442 963H1120L1168 995H393L442 963Z" fill="#0B0C12"/>
  <defs>
    <linearGradient id="sky" x1="800" y1="0" x2="800" y2="862" gradientUnits="userSpaceOnUse">
      <stop stop-color="#1E1E2A"/>
      <stop offset="0.52" stop-color="#171721"/>
      <stop offset="1" stop-color="#171721"/>
    </linearGradient>
    <linearGradient id="vignette" x1="800" y1="915" x2="800" y2="1200" gradientUnits="userSpaceOnUse">
      <stop stop-color="#171721" stop-opacity="0"/>
      <stop offset="0.38" stop-color="#171721" stop-opacity="0.62"/>
      <stop offset="1" stop-color="#171721"/>
    </linearGradient>
  </defs>
</svg>
